<svg width="96" height="96" viewBox="0 0 96 96" fill="none" xmlns="http://www.w3.org/2000/svg">
<rect width="96" height="96" rx="48" fill="#FF8198"/>
<path d="M48 96C74.5097 96 96 74.5097 96 48C96 21.4903 74.5097 0 48 0C21.4903 0 0 21.4903 0 48C0 74.5097 21.4903 96 48 96Z" fill="url(#paint0_linear)"/>
<g clip-path="url(#clip0)">
<path d="M47.61 51.5C49.2668 51.5 50.61 50.1569 50.61 48.5C50.61 46.8431 49.2668 45.5 47.61 45.5C45.9531 45.5 44.61 46.8431 44.61 48.5C44.61 50.1569 45.9531 51.5 47.61 51.5Z" fill="white"/>
<path d="M61.19 48.41C61.53 48.04 61.85 47.66 62.15 47.29C64.85 43.93 65.64 40.87 64.37 38.68C63.71 37.54 62.21 36.16 58.8 36.08C57.95 36.05 57.28 36.72 57.26 37.54C57.24 38.37 57.89 39.06 58.72 39.08C60.3 39.12 61.38 39.51 61.77 40.18C62.35 41.18 61.6 43.19 59.81 45.41C59.57 45.71 59.31 46.01 59.04 46.3C58.05 45.42 56.98 44.56 55.86 43.74C55.09 36.3 52.29 29 47.61 29C44.5 29 42.2 32.18 40.78 36.65C40.27 36.54 39.77 36.44 39.29 36.37C35.03 35.72 31.99 36.56 30.72 38.75C30.03 39.95 29.59 42.05 31.46 45.24C31.88 45.95 32.8 46.2 33.51 45.78C34.22 45.36 34.47 44.44 34.05 43.73C33.18 42.24 32.91 40.97 33.32 40.26C33.9 39.26 36.01 38.91 38.83 39.34C39.22 39.4 39.61 39.48 40.02 39.56C39.75 40.84 39.53 42.19 39.38 43.56C33.25 47.96 28.23 54.1 30.59 58.19C31.64 60.01 33.76 60.78 36.45 60.78C37.76 60.78 39.22 60.58 40.74 60.24C42.16 64.77 44.47 68.02 47.61 68.02C49.04 68.02 51.13 67.31 52.99 63.9C53.39 63.17 53.12 62.26 52.39 61.86C51.66 61.46 50.75 61.73 50.35 62.46C49.47 64.07 48.47 65 47.61 65C46.35 65 44.78 62.98 43.64 59.43C44.9 59.02 46.18 58.52 47.45 57.95C51.25 59.67 55.33 60.83 58.62 60.83C61.29 60.83 63.44 60.07 64.49 58.25C66.07 55.53 64.41 51.9 61.19 48.41ZM33.19 56.68C32.31 55.15 34.36 51.43 39.12 47.53C39.11 47.86 39.11 48.18 39.11 48.51C39.11 51.51 39.41 54.57 40 57.35C36.36 58.12 33.82 57.77 33.19 56.68ZM47.61 32C49.36 32 51.53 35.58 52.54 41.54C52.31 41.4 52.09 41.27 51.86 41.14C49.12 39.56 46.33 38.3 43.68 37.44C44.82 33.98 46.37 32 47.61 32ZM42.88 56.54C42.4 54.24 42.1 51.54 42.1 48.5C42.1 45.41 42.41 42.67 42.9 40.34C45.29 41.13 47.84 42.29 50.35 43.74C52.98 45.26 55.16 46.86 56.91 48.42C55.02 50.1 52.74 51.74 50.22 53.19C47.6 54.71 45.11 55.8 42.88 56.54ZM61.9 56.75C61.02 58.28 56.76 58.36 51 56.19C51.24 56.05 51.49 55.93 51.74 55.79C54.5 54.2 56.99 52.39 59.07 50.52C61.56 53.28 62.53 55.66 61.9 56.75Z" fill="white"/>
</g>
<defs>
<linearGradient id="paint0_linear" x1="60.6841" y1="-24.1381" x2="96" y2="115.213" gradientUnits="userSpaceOnUse">
<stop stop-color="#6EE8FF"/>
<stop offset="1" stop-color="#3885FF"/>
</linearGradient>
<clipPath id="clip0">
<rect width="35.1" height="39" fill="white" transform="translate(30 29)"/>
</clipPath>
</defs>
</svg>
