<svg width="170" height="50" viewBox="0 0 170 50" fill="none" xmlns="http://www.w3.org/2000/svg">
<path d="M7.15882 0H162.306C166.091 0 169.166 2.69 169.166 6V44C169.166 47.31 166.091 50 162.306 50H7.15882C3.37446 50 0.29895 47.31 0.29895 44V6C0.29895 2.69 3.37446 0 7.15882 0Z" fill="white"/>
<path d="M37.1188 24.753C37.0887 21.173 40.0508 19.4329 40.1809 19.3529C38.4997 16.9129 35.8979 16.5729 34.9873 16.5429C32.8058 16.3129 30.6843 17.8529 29.5735 17.8529C28.4428 17.8529 26.7216 16.5729 24.8803 16.6029C22.5087 16.6429 20.2771 18.0129 19.0663 20.153C16.5545 24.503 18.4258 30.903 20.8375 34.423C22.0483 36.143 23.4493 38.073 25.3006 38.003C27.1018 37.933 27.7823 36.853 29.9538 36.853C32.1153 36.853 32.7457 38.003 34.627 37.963C36.5684 37.933 37.7792 36.233 38.95 34.493C40.341 32.523 40.9014 30.573 40.9214 30.473C40.8714 30.453 37.1588 29.033 37.1188 24.753Z" fill="black"/>
<path d="M33.5663 14.2329C34.537 13.0229 35.1975 11.3729 35.0174 9.69287C33.6163 9.75287 31.8551 10.6629 30.8443 11.8529C29.9537 12.9029 29.1531 14.6129 29.3533 16.2229C30.9344 16.3429 32.5556 15.4229 33.5663 14.2329Z" fill="black"/>
<path d="M69.5112 36.8598H66.9895L65.6086 32.5198H60.8053L59.4944 36.8598H57.0427L61.796 22.0898H64.738L69.5112 36.8598ZM65.1983 30.6998L63.9474 26.8498C63.8173 26.4498 63.5672 25.5298 63.2069 24.0698H63.1569C63.0068 24.6998 62.7766 25.6298 62.4564 26.8498L61.2256 30.6998H65.1983Z" fill="black"/>
<path d="M81.7297 31.4097C81.7297 33.2197 81.2394 34.6497 80.2487 35.6997C79.3681 36.6397 78.2673 37.0997 76.9664 37.0997C75.5555 37.0997 74.5448 36.5997 73.9243 35.5897V41.1797H71.5527V29.7097C71.5527 28.5697 71.5227 27.4097 71.4626 26.2097H73.5441L73.6742 27.8997H73.7142C74.5047 26.6297 75.7056 25.9897 77.3067 25.9897C78.5676 25.9897 79.6083 26.4897 80.4489 27.4797C81.3094 28.4797 81.7297 29.7797 81.7297 31.4097ZM79.3181 31.4897C79.3181 30.4497 79.0879 29.5997 78.6176 28.9297C78.1072 28.2297 77.4168 27.8797 76.5562 27.8797C75.9758 27.8797 75.4454 28.0797 74.9651 28.4597C74.4947 28.8497 74.1745 29.3497 74.0344 29.9797C73.9644 30.2697 73.9243 30.5097 73.9243 30.6997V32.4797C73.9243 33.2497 74.1645 33.9097 74.6348 34.4397C75.1052 34.9697 75.7256 35.2397 76.4861 35.2397C77.3767 35.2397 78.0672 34.8897 78.5676 34.2097C79.0679 33.5197 79.3181 32.6197 79.3181 31.4897Z" fill="black"/>
<path d="M93.9784 31.4097C93.9784 33.2197 93.4881 34.6497 92.4974 35.6997C91.6167 36.6397 90.516 37.0997 89.215 37.0997C87.8041 37.0997 86.7933 36.5997 86.1729 35.5897V41.1797H83.8012V29.7097C83.8012 28.5697 83.7712 27.4097 83.7112 26.2097H85.7926L85.9227 27.8997H85.9628C86.7533 26.6297 87.9542 25.9897 89.5553 25.9897C90.8162 25.9897 91.8569 26.4897 92.6975 27.4797C93.5581 28.4797 93.9784 29.7797 93.9784 31.4097ZM91.5667 31.4897C91.5667 30.4497 91.3365 29.5997 90.8662 28.9297C90.3558 28.2297 89.6654 27.8797 88.8048 27.8797C88.2244 27.8797 87.694 28.0797 87.2136 28.4597C86.7433 28.8497 86.4331 29.3497 86.283 29.9797C86.2129 30.2697 86.1729 30.5097 86.1729 30.6997V32.4797C86.1729 33.2497 86.4131 33.9097 86.8834 34.4397C87.3537 34.9697 87.9742 35.2397 88.7347 35.2397C89.6253 35.2397 90.3258 34.8897 90.8162 34.2097C91.3265 33.5197 91.5667 32.6197 91.5667 31.4897Z" fill="black"/>
<path d="M107.688 32.7199C107.688 33.9799 107.247 34.9999 106.377 35.7899C105.416 36.6499 104.075 37.0799 102.354 37.0799C100.763 37.0799 99.4921 36.7699 98.5315 36.1599L99.0819 34.1899C100.123 34.7999 101.263 35.1099 102.504 35.1099C103.395 35.1099 104.095 34.9099 104.586 34.5099C105.086 34.1099 105.336 33.5699 105.336 32.8999C105.336 32.2999 105.126 31.7999 104.726 31.3899C104.315 30.9799 103.635 30.5999 102.684 30.2499C100.073 29.2799 98.7817 27.8699 98.7817 26.0199C98.7817 24.8099 99.242 23.8199 100.153 23.0399C101.063 22.2699 102.274 21.8799 103.785 21.8799C105.126 21.8799 106.247 22.1099 107.137 22.5799L106.537 24.4999C105.696 24.0499 104.756 23.8199 103.695 23.8199C102.864 23.8199 102.204 24.0299 101.734 24.4299C101.343 24.7999 101.143 25.2399 101.143 25.7699C101.143 26.3499 101.373 26.8399 101.824 27.2099C102.214 27.5599 102.934 27.9399 103.975 28.3499C105.246 28.8599 106.177 29.4599 106.777 30.1499C107.388 30.8399 107.688 31.6999 107.688 32.7199Z" fill="black"/>
<path d="M115.533 27.9901H112.921V33.1601C112.921 34.47 113.382 35.13 114.302 35.13C114.723 35.13 115.073 35.09 115.353 35.02L115.423 36.82C114.953 36.99 114.342 37.08 113.582 37.08C112.641 37.08 111.921 36.79 111.39 36.22C110.86 35.65 110.6 34.6901 110.6 33.3501V27.9801H109.049V26.2101H110.6V24.2601L112.921 23.5601V26.2101H115.533V27.9901Z" fill="black"/>
<path d="M127.281 31.45C127.281 33.09 126.811 34.43 125.88 35.48C124.9 36.56 123.599 37.1 121.978 37.1C120.417 37.1 119.166 36.58 118.235 35.55C117.304 34.52 116.844 33.21 116.844 31.63C116.844 29.98 117.324 28.63 118.275 27.58C119.236 26.53 120.527 26 122.148 26C123.709 26 124.97 26.52 125.92 27.56C126.831 28.56 127.281 29.86 127.281 31.45ZM124.83 31.5C124.83 30.52 124.62 29.69 124.199 28.99C123.699 28.14 122.988 27.72 122.068 27.72C121.117 27.72 120.387 28.14 119.896 28.99C119.466 29.69 119.266 30.54 119.266 31.55C119.266 32.53 119.476 33.37 119.896 34.06C120.407 34.91 121.127 35.33 122.048 35.33C122.948 35.33 123.659 34.9 124.179 34.04C124.61 33.32 124.83 32.48 124.83 31.5Z" fill="black"/>
<path d="M134.987 28.2897C134.757 28.2497 134.506 28.2297 134.236 28.2297C133.406 28.2297 132.755 28.5397 132.305 29.1697C131.915 29.7197 131.714 30.4297 131.714 31.2697V36.8597H129.343V29.5597C129.343 28.3297 129.323 27.2097 129.273 26.2097H131.334L131.424 28.2497H131.494C131.744 27.5497 132.135 26.9797 132.675 26.5597C133.205 26.1797 133.776 25.9897 134.386 25.9897C134.606 25.9897 134.807 26.0097 134.977 26.0297L134.987 28.2897Z" fill="black"/>
<path d="M145.574 31.03C145.574 31.45 145.544 31.81 145.484 32.1H138.379C138.409 33.15 138.749 33.96 139.41 34.51C140.01 35 140.781 35.25 141.731 35.25C142.782 35.25 143.743 35.08 144.603 34.75L144.974 36.39C143.963 36.83 142.772 37.05 141.401 37.05C139.75 37.05 138.449 36.56 137.509 35.59C136.568 34.62 136.098 33.31 136.098 31.68C136.098 30.08 136.538 28.74 137.418 27.67C138.339 26.53 139.58 25.96 141.141 25.96C142.672 25.96 143.843 26.53 144.623 27.67C145.254 28.59 145.574 29.7 145.574 31.03ZM143.313 30.42C143.333 29.72 143.172 29.11 142.852 28.6C142.442 27.94 141.811 27.61 140.971 27.61C140.2 27.61 139.57 27.93 139.09 28.57C138.699 29.08 138.459 29.7 138.389 30.41L143.313 30.42Z" fill="black"/>
<path d="M64.0576 16.8108H62.8168L62.1363 14.6808H59.7746L59.1242 16.8108H57.9233L60.255 9.55078H61.696L64.0576 16.8108ZM61.9261 13.7808L61.3157 11.8808C61.2557 11.6908 61.1356 11.2308 60.9454 10.5108H60.9254C60.8454 10.8208 60.7453 11.2708 60.5752 11.8808L59.9748 13.7808H61.9261Z" fill="black"/>
<path d="M69.9015 11.5703L67.9201 16.8103H66.7894L64.868 11.5703H66.1189L67.0095 14.3403C67.1596 14.8003 67.2897 15.2403 67.3898 15.6603H67.4198C67.5099 15.2803 67.6399 14.8403 67.8001 14.3403L68.6807 11.5703H69.9015Z" fill="black"/>
<path d="M74.1245 16.8105L74.0345 16.2105H74.0044C73.6442 16.6905 73.1338 16.9305 72.4733 16.9305C71.5327 16.9305 70.8722 16.2705 70.8722 15.3905C70.8722 14.1005 71.993 13.4305 73.9344 13.4305V13.3305C73.9344 12.6405 73.5641 12.3005 72.8436 12.3005C72.3232 12.3005 71.8729 12.4305 71.4726 12.6905L71.2325 11.9305C71.7128 11.6305 72.3232 11.4805 73.0337 11.4805C74.4047 11.4805 75.0952 12.2005 75.0952 13.6505V15.5805C75.0952 16.1105 75.1152 16.5205 75.1753 16.8305L74.1245 16.8105ZM73.9644 14.2005C72.6735 14.2005 72.023 14.5105 72.023 15.2605C72.023 15.8105 72.3533 16.0805 72.8236 16.0805C73.414 16.0805 73.9644 15.6305 73.9644 15.0105V14.2005Z" fill="black"/>
<path d="M77.687 10.7103C77.2967 10.7103 76.9965 10.4103 76.9965 10.0103C76.9965 9.61031 77.3067 9.32031 77.707 9.32031C78.1073 9.32031 78.4275 9.61031 78.4175 10.0103C78.4175 10.4303 78.1173 10.7103 77.687 10.7103ZM77.1266 11.5703H78.2874V16.8003H77.1266V11.5703Z" fill="black"/>
<path d="M80.3588 9.17041H81.5188V16.8004H80.3588V9.17041Z" fill="black"/>
<path d="M86.4629 16.8107L86.3729 16.2107H86.3429C85.9826 16.6907 85.4723 16.9307 84.8118 16.9307C83.8712 16.9307 83.2107 16.2707 83.2107 15.3907C83.2107 14.1007 84.3315 13.4307 86.2728 13.4307V13.3307C86.2728 12.6407 85.9026 12.3007 85.1821 12.3007C84.6617 12.3007 84.2114 12.4307 83.8111 12.6907L83.5709 11.9207C84.0513 11.6207 84.6617 11.4707 85.3722 11.4707C86.7431 11.4707 87.4336 12.1907 87.4336 13.6407V15.5707C87.4336 16.1007 87.4536 16.5107 87.5037 16.8207H86.4629V16.8107ZM86.3028 14.2007C85.0119 14.2007 84.3615 14.5107 84.3615 15.2607C84.3615 15.8107 84.6917 16.0807 85.162 16.0807C85.7525 16.0807 86.3028 15.6307 86.3028 15.0107V14.2007Z" fill="black"/>
<path d="M92.157 16.9304C91.4165 16.9304 90.8662 16.6204 90.5059 16.0004H90.4859L90.4158 16.8104H89.4252C89.4552 16.3904 89.4652 15.9204 89.4652 15.4004V9.17041H90.636V12.3404H90.656C91.0063 11.7604 91.5566 11.4704 92.3272 11.4704C93.588 11.4704 94.4686 12.5504 94.4686 14.1204C94.4686 15.7404 93.488 16.9304 92.157 16.9304ZM91.9169 12.3804C91.2464 12.3804 90.636 12.9604 90.636 13.7704V14.6904C90.636 15.4104 91.1864 16.0004 91.8969 16.0004C92.7675 16.0004 93.2878 15.2904 93.2878 14.1604C93.2878 13.1004 92.7474 12.3804 91.9169 12.3804Z" fill="black"/>
<path d="M96.1898 9.17041H97.3498V16.8004H96.1898V9.17041Z" fill="black"/>
<path d="M103.685 14.4707H100.193C100.213 15.4607 100.873 16.0207 101.844 16.0207C102.364 16.0207 102.835 15.9307 103.255 15.7707L103.435 16.5807C102.945 16.8007 102.364 16.9007 101.684 16.9007C100.043 16.9007 99.0719 15.8707 99.0719 14.2607C99.0719 12.6607 100.063 11.4507 101.554 11.4507C102.885 11.4507 103.735 12.4407 103.735 13.9407C103.735 14.1507 103.725 14.3307 103.685 14.4707ZM102.624 13.6407C102.624 12.8307 102.214 12.2607 101.474 12.2607C100.803 12.2607 100.283 12.8407 100.203 13.6407H102.624Z" fill="black"/>
<path d="M110.74 16.9307C109.209 16.9307 108.218 15.7907 108.218 14.2407C108.218 12.6207 109.229 11.4707 110.83 11.4707C112.341 11.4707 113.352 12.5607 113.352 14.1507C113.352 15.7807 112.311 16.9307 110.74 16.9307ZM110.79 12.3207C109.949 12.3207 109.409 13.1107 109.409 14.2007C109.409 15.2807 109.959 16.0607 110.78 16.0607C111.601 16.0607 112.151 15.2207 112.151 14.1707C112.141 13.1107 111.611 12.3207 110.79 12.3207Z" fill="black"/>
<path d="M119.606 16.8104H118.445V13.8004C118.445 12.8704 118.085 12.4104 117.385 12.4104C116.694 12.4104 116.224 13.0004 116.224 13.6904V16.8004H115.063V13.0704C115.063 12.6104 115.053 12.1104 115.023 11.5704H116.044L116.094 12.3804H116.124C116.434 11.8204 117.074 11.4604 117.785 11.4604C118.886 11.4604 119.606 12.3004 119.606 13.6704V16.8104Z" fill="black"/>
<path d="M127.221 12.4505H125.941V14.9905C125.941 15.6405 126.171 15.9605 126.621 15.9605C126.821 15.9605 127.001 15.9405 127.141 15.9105L127.171 16.7905C126.941 16.8805 126.641 16.9205 126.271 16.9205C125.35 16.9205 124.81 16.4105 124.81 15.0905V12.4505H124.049V11.5805H124.81V10.6205L125.951 10.2705V11.5705H127.231V12.4505" fill="black"/>
<path d="M133.385 16.8104H132.225V13.8204C132.225 12.8804 131.865 12.4104 131.164 12.4104C130.564 12.4104 130.003 12.8204 130.003 13.6504V16.8004H128.843V9.17041H130.003V12.3104H130.023C130.394 11.7404 130.914 11.4604 131.594 11.4604C132.705 11.4604 133.385 12.3204 133.385 13.6904V16.8104Z" fill="black"/>
<path d="M139.33 14.4707H135.837C135.857 15.4607 136.518 16.0207 137.489 16.0207C138.009 16.0207 138.479 15.9307 138.9 15.7707L139.08 16.5807C138.589 16.8007 138.009 16.9007 137.328 16.9007C135.687 16.9007 134.717 15.8707 134.717 14.2607C134.717 12.6607 135.707 11.4507 137.198 11.4507C138.529 11.4507 139.38 12.4407 139.38 13.9407C139.38 14.1507 139.37 14.3307 139.33 14.4707ZM138.269 13.6407C138.269 12.8307 137.859 12.2607 137.118 12.2607C136.448 12.2607 135.918 12.8407 135.847 13.6407H138.269Z" fill="black"/>
</svg>
