<svg width="46" height="45" viewBox="0 0 46 45" fill="none" xmlns="http://www.w3.org/2000/svg">
<path d="M22.8542 45C10.2505 45 0 34.9084 0 22.5C0 10.0916 10.2505 0 22.8542 0C35.4579 0 45.7083 10.0916 45.7083 22.5C45.7167 34.9084 35.4579 45 22.8542 45ZM22.8542 2.41572C11.6071 2.41572 2.45374 11.4273 2.45374 22.5C2.45374 33.5727 11.6071 42.5843 22.8542 42.5843C34.1012 42.5843 43.2546 33.5727 43.2546 22.5C43.2546 11.4273 34.1096 2.41572 22.8542 2.41572Z" fill="white"/>
<path fill-rule="evenodd" clip-rule="evenodd" d="M19.2699 22.6074V35.6506C19.2699 35.8402 19.4206 35.9886 19.6133 35.9886H24.5291C24.7217 35.9886 24.8725 35.8402 24.8725 35.6506V22.393H28.44C28.6159 22.393 28.7667 22.2611 28.7834 22.0797L29.1268 18.0892C29.1435 17.8913 28.9844 17.7182 28.7834 17.7182H24.8725V14.882C24.8725 14.2142 25.4168 13.6783 26.0952 13.6783H28.842C29.0346 13.6783 29.1854 13.5299 29.1854 13.3402V9.34975C29.1854 9.16012 29.0346 9.01172 28.842 9.01172H24.1941C21.4724 9.01172 19.2615 11.1883 19.2615 13.8679V17.7182H16.7994C16.6068 17.7182 16.4561 17.8666 16.4561 18.0562V22.0467C16.4561 22.2363 16.6068 22.3847 16.7994 22.3847H19.2615V22.6074H19.2699Z" fill="white"/>
</svg>
