<svg width="170" height="50" viewBox="0 0 170 50" fill="none" xmlns="http://www.w3.org/2000/svg">
<g clip-path="url(#clip0)">
<path d="M163 50H6.75C3.3125 50 0.5 47.1875 0.5 43.75V6.25C0.5 2.8125 3.3125 0 6.75 0H163C166.438 0 169.25 2.8125 169.25 6.25V43.75C169.25 47.1875 166.438 50 163 50Z" fill="white"/>
<path d="M163 1C165.9 1 168.25 3.35 168.25 6.25V43.75C168.25 46.65 165.9 49 163 49H6.75C3.85 49 1.5 46.65 1.5 43.75V6.25C1.5 3.35 3.85 1 6.75 1H163ZM163 0H6.75C3.3125 0 0.5 2.8125 0.5 6.25V43.75C0.5 47.1875 3.3125 50 6.75 50H163C166.438 50 169.25 47.1875 169.25 43.75V6.25C169.25 2.8125 166.438 0 163 0Z" fill="#A6A6A6"/>
<path d="M59.7751 12.7999C59.7751 13.8499 59.4626 14.6874 58.8376 15.2999C58.1376 16.0374 57.2126 16.4124 56.0876 16.4124C55.0001 16.4124 54.0876 16.0374 53.3251 15.2874C52.5626 14.5374 52.1876 13.5999 52.1876 12.4999C52.1876 11.3874 52.5626 10.4624 53.3251 9.7124C54.0876 8.9624 55.0001 8.5874 56.0876 8.5874C56.6251 8.5874 57.1376 8.6874 57.6251 8.8999C58.1126 9.1124 58.5001 9.3874 58.8001 9.7374L58.1376 10.3999C57.6376 9.8124 56.9626 9.5124 56.0876 9.5124C55.3001 9.5124 54.6126 9.7874 54.0376 10.3499C53.4626 10.8999 53.1751 11.6249 53.1751 12.5124C53.1751 13.3999 53.4626 14.1249 54.0376 14.6749C54.6126 15.2249 55.3001 15.5124 56.0876 15.5124C56.9251 15.5124 57.6251 15.2374 58.1876 14.6749C58.5501 14.3124 58.7626 13.7999 58.8126 13.1499H56.0876V12.2374H59.7251C59.7501 12.4374 59.7751 12.6249 59.7751 12.7999Z" fill="#A6A6A6"/>
<path d="M65.5381 9.675H62.1253V12.05H65.2007V12.95H62.1253V15.325H65.5381V16.25H61.1628V8.75H65.5381V9.675Z" fill="#A6A6A6"/>
<path d="M69.6 16.25H68.6375V9.675H66.5375V8.75H71.6875V9.675H69.5875V16.25H69.6Z" fill="#A6A6A6"/>
<path d="M75.425 16.25V8.75H76.3876V16.25H75.425Z" fill="#A6A6A6"/>
<path d="M80.6625 16.25H79.7V9.675H77.6V8.75H82.75V9.675H80.65V16.25H80.6625Z" fill="#A6A6A6"/>
<path d="M92.5125 15.2749C91.775 16.0374 90.8625 16.4124 89.7625 16.4124C88.6625 16.4124 87.75 16.0374 87.0125 15.2749C86.275 14.5124 85.9125 13.5874 85.9125 12.4999C85.9125 11.4124 86.275 10.4749 87.0125 9.7249C87.75 8.9624 88.6625 8.5874 89.7625 8.5874C90.85 8.5874 91.7625 8.9624 92.5125 9.7249C93.25 10.4874 93.625 11.4124 93.625 12.4999C93.6125 13.5999 93.25 14.5249 92.5125 15.2749ZM87.725 14.6499C88.275 15.2124 88.9625 15.4874 89.7625 15.4874C90.5625 15.4874 91.25 15.2124 91.8 14.6499C92.35 14.0874 92.6375 13.3749 92.6375 12.4999C92.6375 11.6249 92.3625 10.9124 91.8 10.3499C91.25 9.7874 90.5625 9.4999 89.7625 9.4999C88.9625 9.4999 88.275 9.7749 87.725 10.3374C87.175 10.9124 86.8875 11.6249 86.8875 12.4999C86.8875 13.3749 87.175 14.0874 87.725 14.6499Z" fill="#A6A6A6"/>
<path d="M94.975 16.25V8.75H96.15L99.8 14.5875H99.8375L99.8 13.1375V8.75H100.762V16.25H99.7625L95.95 10.1375H95.9125L95.95 11.5875V16.25H94.975Z" fill="#A6A6A6"/>
<path d="M85.675 27.1875C82.7375 27.1875 80.3375 29.425 80.3375 32.5C80.3375 35.5625 82.7375 37.8125 85.675 37.8125C88.6125 37.8125 91.0125 35.5625 91.0125 32.5C91.0125 29.425 88.6125 27.1875 85.675 27.1875ZM85.675 35.725C84.0625 35.725 82.675 34.4 82.675 32.5C82.675 30.5875 84.0625 29.275 85.675 29.275C87.2875 29.275 88.675 30.5875 88.675 32.5C88.675 34.4 87.275 35.725 85.675 35.725ZM74.025 27.1875C71.0875 27.1875 68.6875 29.425 68.6875 32.5C68.6875 35.5625 71.0875 37.8125 74.025 37.8125C76.9625 37.8125 79.3625 35.5625 79.3625 32.5C79.3625 29.425 76.9625 27.1875 74.025 27.1875ZM74.025 35.725C72.4125 35.725 71.025 34.4 71.025 32.5C71.025 30.5875 72.4125 29.275 74.025 29.275C75.6375 29.275 77.025 30.5875 77.025 32.5C77.025 34.4 75.6375 35.725 74.025 35.725ZM60.1751 28.825V31.075H65.575C65.4125 32.3375 64.9875 33.275 64.35 33.9125C63.5625 34.7 62.3376 35.5625 60.1876 35.5625C56.8625 35.5625 54.2626 32.8875 54.2626 29.5625C54.2626 26.2375 56.8625 23.5625 60.1876 23.5625C61.9751 23.5625 63.2875 24.2625 64.25 25.175L65.8375 23.5875C64.4875 22.3 62.7001 21.3125 60.1751 21.3125C55.6251 21.3125 51.8 25.0125 51.8 29.575C51.8 34.125 55.6251 37.8375 60.1751 37.8375C62.6376 37.8375 64.4875 37.0375 65.9375 35.525C67.425 34.0375 67.8875 31.9375 67.8875 30.25C67.8875 29.725 67.85 29.2375 67.7625 28.8375H60.1751V28.825ZM116.813 30.575C116.375 29.3875 115.025 27.1875 112.263 27.1875C109.525 27.1875 107.25 29.3375 107.25 32.5C107.25 35.475 109.5 37.8125 112.525 37.8125C114.963 37.8125 116.375 36.325 116.95 35.4625L115.138 34.25C114.538 35.1375 113.713 35.725 112.525 35.725C111.338 35.725 110.487 35.175 109.95 34.1125L117.063 31.175L116.813 30.575ZM109.563 32.35C109.5 30.3 111.15 29.25 112.338 29.25C113.263 29.25 114.05 29.7125 114.313 30.375L109.563 32.35ZM103.787 37.5H106.125V21.875H103.787V37.5ZM99.9625 28.375H99.875C99.35 27.75 98.35 27.1875 97.075 27.1875C94.4125 27.1875 91.975 29.525 91.975 32.525C91.975 35.5 94.4125 37.825 97.075 37.825C98.3375 37.825 99.35 37.2625 99.875 36.6125H99.95V37.375C99.95 39.4125 98.8625 40.5 97.1125 40.5C95.6875 40.5 94.8 39.475 94.4375 38.6125L92.4 39.4625C92.9875 40.875 94.5375 42.6 97.1125 42.6C99.85 42.6 102.163 40.9875 102.163 37.0625V27.5125H99.95V28.375H99.9625ZM97.275 35.725C95.6625 35.725 94.3125 34.375 94.3125 32.525C94.3125 30.65 95.6625 29.2875 97.275 29.2875C98.8625 29.2875 100.113 30.6625 100.113 32.525C100.125 34.375 98.875 35.725 97.275 35.725ZM127.763 21.875H122.175V37.5H124.513V31.575H127.775C130.363 31.575 132.9 29.7 132.9 26.725C132.9 23.75 130.338 21.875 127.763 21.875ZM127.813 29.4H124.5V24.0375H127.813C129.563 24.0375 130.55 25.4875 130.55 26.7125C130.55 27.9375 129.563 29.4 127.813 29.4ZM142.238 27.1625C140.55 27.1625 138.8 27.9125 138.075 29.55L140.15 30.4125C140.588 29.55 141.413 29.2625 142.275 29.2625C143.488 29.2625 144.713 29.9875 144.725 31.275V31.4375C144.3 31.2 143.4 30.8375 142.288 30.8375C140.05 30.8375 137.788 32.0625 137.788 34.35C137.788 36.4375 139.613 37.7875 141.663 37.7875C143.225 37.7875 144.1 37.0875 144.638 36.2625H144.713V37.475H146.963V31.4875C146.975 28.7125 144.9 27.1625 142.238 27.1625ZM141.95 35.725C141.188 35.725 140.125 35.3375 140.125 34.4C140.125 33.2 141.45 32.7375 142.6 32.7375C143.625 32.7375 144.113 32.9625 144.725 33.2625C144.55 34.7 143.3 35.725 141.95 35.725ZM155.175 27.5L152.5 34.275H152.425L149.65 27.5H147.138L151.3 36.975L148.925 42.2375H151.363L157.775 27.5H155.175ZM134.175 37.5H136.513V21.875H134.175V37.5Z" fill="#A6A6A6"/>
<path d="M13.55 9.4249C13.1875 9.8124 12.975 10.4124 12.975 11.1749V38.8249C12.975 39.5999 13.1875 40.1999 13.55 40.5749L13.6375 40.6624L29.125 25.1874V24.9999V24.8124L13.6375 9.3374L13.55 9.4249Z" fill="url(#paint0_linear)"/>
<path d="M34.2874 30.3499L29.1249 25.1874V24.9999V24.8124L34.2874 19.6499L34.3999 19.7124L40.5124 23.1874C42.2624 24.1749 42.2624 25.7999 40.5124 26.7999L34.3999 30.2749L34.2874 30.3499Z" fill="url(#paint1_linear)"/>
<path d="M34.3993 30.2875L29.1243 25L13.5493 40.575C14.1243 41.1875 15.0743 41.2625 16.1493 40.65L34.3993 30.2875Z" fill="url(#paint2_linear)"/>
<path d="M34.3996 19.7249L16.1371 9.34986C15.0621 8.73736 14.1121 8.81236 13.5371 9.42486L29.1246 24.9999L34.3996 19.7249Z" fill="url(#paint3_linear)"/>
<path opacity="0.2" d="M34.2874 30.1626L16.1374 40.4751C15.1249 41.0501 14.2124 41.0126 13.6374 40.4876L13.5499 40.5751L13.6374 40.6626C14.2249 41.1876 15.1249 41.2251 16.1374 40.6501L34.3999 30.2751L34.2874 30.1626Z" fill="black"/>
<path opacity="0.12" d="M13.55 40.3999C13.1875 40.0124 12.975 39.4124 12.975 38.6499V38.8374C12.975 39.6124 13.1875 40.2124 13.55 40.5874L13.6375 40.4999L13.55 40.3999Z" fill="black"/>
<path opacity="0.12" d="M40.5119 26.625L34.2744 30.1625L34.3869 30.275L40.4994 26.8C41.3744 26.3 41.8119 25.65 41.8119 25C41.7494 25.5875 41.3119 26.175 40.5119 26.625Z" fill="black"/>
<path opacity="0.25" d="M16.1372 9.52602L40.5121 23.376C41.2996 23.826 41.7497 24.401 41.8246 25.001C41.8246 24.351 41.3871 23.6885 40.5121 23.201L16.1372 9.35102C14.3872 8.36352 12.9622 9.18852 12.9622 11.1885V11.376C12.9622 9.36352 14.3997 8.53852 16.1372 9.52602Z" fill="white"/>
</g>
<defs>
<linearGradient id="paint0_linear" x1="27.7495" y1="10.8872" x2="6.77148" y2="31.8651" gradientUnits="userSpaceOnUse">
<stop stop-color="#00A0FF"/>
<stop offset="0.00657445" stop-color="#00A1FF"/>
<stop offset="0.2601" stop-color="#00BEFF"/>
<stop offset="0.5122" stop-color="#00D2FF"/>
<stop offset="0.7604" stop-color="#00DFFF"/>
<stop offset="1" stop-color="#00E3FF"/>
</linearGradient>
<linearGradient id="paint1_linear" x1="42.7928" y1="25.0018" x2="12.5466" y2="25.0018" gradientUnits="userSpaceOnUse">
<stop stop-color="#FFE000"/>
<stop offset="0.4087" stop-color="#FFBD00"/>
<stop offset="0.7754" stop-color="#FFA500"/>
<stop offset="1" stop-color="#FF9C00"/>
</linearGradient>
<linearGradient id="paint2_linear" x1="31.5329" y1="27.8702" x2="3.08507" y2="56.3181" gradientUnits="userSpaceOnUse">
<stop stop-color="#FF3A44"/>
<stop offset="1" stop-color="#C31162"/>
</linearGradient>
<linearGradient id="paint3_linear" x1="9.62111" y1="0.220223" x2="22.3244" y2="12.9234" gradientUnits="userSpaceOnUse">
<stop stop-color="#32A071"/>
<stop offset="0.0685" stop-color="#2DA771"/>
<stop offset="0.4762" stop-color="#15CF74"/>
<stop offset="0.8009" stop-color="#06E775"/>
<stop offset="1" stop-color="#00F076"/>
</linearGradient>
<clipPath id="clip0">
<rect width="168.75" height="50" fill="white" transform="translate(0.5)"/>
</clipPath>
</defs>
</svg>
