<svg width="96" height="96" viewBox="0 0 96 96" fill="none" xmlns="http://www.w3.org/2000/svg">
<rect width="96" height="96" rx="48" fill="#1FB6FF"/>
<path d="M48 96C74.5097 96 96 74.5097 96 48C96 21.4903 74.5097 0 48 0C21.4903 0 0 21.4903 0 48C0 74.5097 21.4903 96 48 96Z" fill="url(#paint0_linear)"/>
<path d="M40 35H59V33C59 30.79 57.21 29 55 29H39C36.79 29 35 30.79 35 33V63C35 65.21 36.79 67 39 67H55C57.21 67 59 65.21 59 63V55H55V57C55 57.55 54.55 58 54 58H40C39.45 58 39 57.55 39 57V36C39 35.45 39.45 35 40 35ZM48 64.5H46C44.9 64.5 44 63.6 44 62.5C44 61.4 44.9 60.5 46 60.5H48C49.1 60.5 50 61.4 50 62.5C50 63.6 49.1 64.5 48 64.5Z" fill="white"/>
<path d="M59 37.5H45C43.9 37.5 43 38.4 43 39.5V53.5C43 54.32 43.94 54.79 44.6 54.3L46.47 52.9C46.82 52.64 47.24 52.5 47.67 52.5H59C60.1 52.5 61 51.6 61 50.5V39.5C61 38.4 60.1 37.5 59 37.5ZM53 49.25H48C47.31 49.25 46.75 48.69 46.75 48C46.75 47.31 47.31 46.75 48 46.75H53C53.69 46.75 54.25 47.31 54.25 48C54.25 48.69 53.69 49.25 53 49.25ZM57 44.25H48C47.31 44.25 46.75 43.69 46.75 43C46.75 42.31 47.31 41.75 48 41.75H57C57.69 41.75 58.25 42.31 58.25 43C58.25 43.69 57.69 44.25 57 44.25Z" fill="white"/>
<defs>
<linearGradient id="paint0_linear" x1="60.9208" y1="-23.2039" x2="95.9777" y2="115.125" gradientUnits="userSpaceOnUse">
<stop stop-color="#FFA1AA"/>
<stop offset="0.999789" stop-color="#FF5997"/>
</linearGradient>
</defs>
</svg>
