<svg width="97" height="96" viewBox="0 0 97 96" fill="none" xmlns="http://www.w3.org/2000/svg">
<g clip-path="url(#clip0)">
<rect x="0.5" width="96" height="96" rx="48" fill="#12CE66"/>
<path d="M48.5 96C75.0097 96 96.5 74.5097 96.5 48C96.5 21.4903 75.0097 0 48.5 0C21.9903 0 0.5 21.4903 0.5 48C0.5 74.5097 21.9903 96 48.5 96Z" fill="url(#paint0_linear)"/>
<g clip-path="url(#clip1)">
<path d="M68.4391 64.364L66.6112 58.8803C66.5096 58.5655 66.5401 58.2304 66.6924 57.9359C68.0633 55.2652 68.632 52.1172 68.043 48.7966C67.1291 43.709 63.4023 39.4744 58.5685 37.8496C59.8176 40.8656 60.1933 44.2167 59.5739 47.5373C58.3045 54.2903 52.9021 59.6521 46.1187 60.8605C45.2454 61.023 44.3517 61.0941 43.4683 61.1144C45.5297 63.3383 48.2817 64.9123 51.3484 65.4708C54.6488 66.0598 57.7866 65.5115 60.4472 64.1609C60.7417 64.0085 61.0768 63.9781 61.3814 64.0796L66.8854 65.9176C67.8399 66.2426 68.764 65.3185 68.4391 64.364Z" fill="white"/>
<path d="M40.2897 30.2538C34.5725 31.3201 29.9927 35.9609 28.967 41.6882C28.3679 45.0089 28.9366 48.1569 30.3176 50.8276C30.47 51.1221 30.5004 51.4572 30.3989 51.772L28.571 57.2556C28.246 58.2203 29.1701 59.1343 30.1348 58.8195L35.6388 56.9814C35.9536 56.8799 36.2887 56.9104 36.573 57.0627C39.2336 58.4133 42.3714 58.9616 45.6718 58.3727C51.3788 57.347 56.0094 52.7773 57.0858 47.0805C58.9543 37.0271 50.3329 28.3854 40.2897 30.2538ZM43.9251 48.7459H36.8167C36.1161 48.7459 35.5474 48.1772 35.5474 47.4765C35.5474 46.7758 36.1161 46.2071 36.8167 46.2071H43.9251C44.6258 46.2071 45.1945 46.7758 45.1945 47.4765C45.1945 48.1772 44.6258 48.7459 43.9251 48.7459ZM49.0026 43.6684H36.8167C36.1161 43.6684 35.5474 43.0997 35.5474 42.3991C35.5474 41.6984 36.1161 41.1297 36.8167 41.1297H49.0026C49.7033 41.1297 50.2719 41.6984 50.2719 42.3991C50.2719 43.0997 49.7033 43.6684 49.0026 43.6684Z" fill="white"/>
</g>
</g>
<defs>
<linearGradient id="paint0_linear" x1="61.4208" y1="13.4624" x2="61.4208" y2="112.181" gradientUnits="userSpaceOnUse">
<stop stop-color="#64F3AF"/>
<stop offset="0.708333" stop-color="#0AB5FF"/>
</linearGradient>
<clipPath id="clip0">
<rect x="0.5" width="96" height="96" rx="48" fill="white"/>
</clipPath>
<clipPath id="clip1">
<rect width="40" height="35.9888" fill="white" transform="translate(28.5 30)"/>
</clipPath>
</defs>
</svg>
